<?xml version="1.0" encoding="utf-8"?>
<!-- Generator: Adobe Illustrator 19.1.0, SVG Export Plug-In . SVG Version: 6.00 Build 0)  -->
<svg version="1.1" id="Layer_1" xmlns="http://www.w3.org/2000/svg" xmlns:xlink="http://www.w3.org/1999/xlink" x="0px" y="0px"
	 viewBox="0 0 938.4 223.3" style="enable-background:new 0 0 938.4 223.3;" xml:space="preserve">
<style type="text/css">
	.st0{fill-rule:evenodd;clip-rule:evenodd;fill:#DB6327;}
	.st1{fill:#FFFFFF;}
	.st2{fill-rule:evenodd;clip-rule:evenodd;fill:#1892BF;}
	.st3{fill-rule:evenodd;clip-rule:evenodd;fill:#FFFFFF;}
	.st4{fill:#767877;}
	.st5{fill:#1892BF;}
</style>
<g>
	<path class="st0" d="M98.7,155.7c-4.6,0-9-1.8-12.2-5c-3.2-3.2-4.9-7.5-4.9-12.2c0-8.9,0-17.8,0-26.7V85.2
		c0-10.8,8.7-17.3,17.1-17.3c2.8,0,5.7,0.7,8.2,2.1c14.8,8.2,29.5,16.3,44.3,24.5c10.9,5.4,13.3,12.1,13.4,16.7
		c0.1,4.8-2.1,11.7-13.3,17.9c-14.8,8.2-29.6,16.4-44.4,24.6l-0.2,0.1C104.1,155.1,101.4,155.7,98.7,155.7z"/>
	<path class="st1" d="M98.6,74c1.8,0,3.6,0.4,5.2,1.3c14.8,8.2,29.6,16.4,44.4,24.6c13.8,6.8,13.5,16.6,0,24.1
		c-14.8,8.2-29.6,16.4-44.4,24.6c-1.7,0.8-3.4,1.2-5.2,1.2c-5.7,0-11.1-4.2-11.1-11.2c0-8.9,0-17.8,0-26.7V85.2
		C87.5,78.3,93,74,98.6,74 M98.6,62L98.6,62c-13,0-23.1,10.2-23.1,23.3v26.7c0,8.8,0,17.6,0,26.5v0.2c0,6.3,2.4,12.1,6.7,16.4
		c4.3,4.3,10.3,6.7,16.4,6.7c3.6,0,7.3-0.9,10.5-2.5l0.3-0.1l0.2-0.1c14.8-8.2,29.6-16.4,44.4-24.6c6.2-3.4,16.7-11.1,16.4-23.3
		c-0.3-11.9-10.4-18.8-16.6-21.9c-14.7-8.1-29.4-16.3-44.1-24.4l-0.1,0C106.3,63,102.5,62,98.6,62L98.6,62z"/>
</g>
<path class="st2" d="M232.7,32.1C233,17.3,222.8,4.9,214.3,0c9.3,33.4-12.7,44.2-41.2,50.8c-5.4-2.9-11.6-4.5-18.1-4.5H77.7
	c-6.5,0-12.7,1.7-18.1,4.5C31,44.2,9,33.4,18.3,0C9.9,4.9-0.3,17.3,0,32.1c0.4,19.8,19.5,39.2,39,51.5l0,54.7
	c0,21.3,17.4,38.9,38.7,38.9h11.8l26.8,33.5l26.8-33.5H155c21.3,0,38.7-17.6,38.7-38.9l0-54.7C213.2,71.4,232.3,51.9,232.7,32.1z
	 M152.7,132.1c-14.8,8.2-29.6,16.3-44.4,24.5c-12.9,7.8-30-2.7-30-18c0-20.7,0-22.7,0-53.3c0-15.3,16.3-25.7,30.1-18
	c2.4,1.3,44.4,24.5,44.4,24.5c7.8,3.9,14.9,10.3,15,19.6C167.9,120.9,160.5,127.8,152.7,132.1z"/>
<path class="st3" d="M152.7,91.7c0,0-42-23.2-44.4-24.5c-13.8-7.7-30.1,2.8-30.1,18c0,30.7,0,32.7,0,53.3c0,15.3,17.1,25.8,30,18
	c14.8-8.2,29.6-16.3,44.4-24.5c7.8-4.3,15.2-11.2,15-20.8C167.6,102.1,160.5,95.7,152.7,91.7z M148.3,124
	c-14.8,8.2-29.6,16.4-44.4,24.6c-7.1,3.5-16.3-0.9-16.3-9.9c0-8.9,0-17.8,0-26.7V85.2c0-9.1,9.4-13.8,16.3-9.9
	c14.8,8.2,29.6,16.4,44.4,24.6C162,106.7,161.7,116.5,148.3,124z"/>
<path class="st4" d="M266.7,177.5v-9.6h18.1V22.5h-18.1v-9.6h29.5v68.9h0.4c3.1-6.4,7.5-11.4,13.2-14.9c5.7-3.5,11.9-5.3,18.7-5.3
	c15.7,0,25.8,4.3,30.2,13c4.4,8.6,6.7,20.8,6.7,36.3v8.8v48.3h16.7v9.6h-46.5v-9.6h18.1v-48.2c0-11.9-0.5-20.9-1.4-27.1
	c-0.9-6.1-3.3-11-7-14.4c-3.8-3.5-9.6-5.2-17.4-5.2c-21.1,0-31.6,15.6-31.6,46.8v48.2h18.1v9.6H266.7L266.7,177.5z M462.1,177.5h27
	v-9.6h-15.7v-66.7c0-14.3-3.4-24.5-10.3-30.6c-6.9-6.1-17.2-9.1-30.9-9.1c-24.7,0-38.6,11.4-41.5,34h12.7
	c2.4-16.3,12.3-24.4,29.8-24.4c19.2,0,28.8,10,28.8,30v8.2h-21.6c-9.3,0-17.7,0.7-25.3,2.2c-7.6,1.5-14.2,4.8-19.7,9.9
	c-5.5,5.1-8.3,12.6-8.3,22.4c0,11.8,3.4,20.8,10.1,27c6.7,6.2,15.4,9.2,26.1,9.2c8.5,0,16.2-2.1,23.2-6.4c7-4.2,11.9-10.5,14.8-18.8
	h0.7V177.5L462.1,177.5z M400,144.5c0-17,12.9-25.6,38.7-25.6h23.4c0,15.1-2.9,27.4-8.6,37c-5.7,9.6-15,14.4-27.6,14.4
	c-7.2,0-13.2-2.4-18.3-7C402.5,158.7,400,152.4,400,144.5L400,144.5z M489.1,219.1h49.7v-9.6h-19.2v-54.7h0.4
	c8.5,16.9,20.8,25.3,36.9,25.3c9.6,0,17.7-2.9,24.5-8.6c6.7-5.7,11.8-13.1,15.1-22.2c3.4-9,5-18.5,5-28.4c0-17.7-3.7-32.1-11.2-42.9
	c-7.5-10.8-18.6-16.3-33.4-16.3c-15.4,0-27.7,8.9-36.9,26.6h-0.4V64.3h-30.5v9.3h19.2v135.9h-19.2V219.1L489.1,219.1z M519.6,121.8
	c0-13.2,2.9-25,8.6-35.3c5.7-10.2,14.3-15.4,25.5-15.4c7.6,0,14.1,2.4,19.3,7c5.3,4.7,9.2,10.9,11.8,18.5c2.6,7.6,3.9,15.6,3.9,24.2
	c0,8.5-1.2,16.5-3.7,24.2c-2.5,7.6-6.3,13.8-11.6,18.4c-5.3,4.7-11.8,7-19.8,7c-11.1,0-19.6-4.9-25.4-14.7
	C522.5,145.8,519.6,134.6,519.6,121.8L519.6,121.8z"/>
<path class="st5" d="M669.6,196.3c-2.9,7.8-9.1,14.2-18.7,19.3c-9.6,5.1-20.7,7.7-33.4,7.7v-24c21,0,31.4-5.3,31.4-15.8
	c0-6.9-2.9-17.6-8.7-32l-36.5-90.5H632l31.8,80.6l28.6-80.6h28.2L669.6,196.3L669.6,196.3z M790.6,165.9l4.7,14.1l19.8,0l-0.1-63.1
	c0-22.6-4.1-37.9-12.4-46c-8.3-8.1-21.3-12.1-39.1-12.1c-12.9,0-24,2.2-33.4,6.7l5.9,21.1c6.9-3.4,15.5-5.1,25.7-5.1
	c17.4,0,26,6.9,26,20.6c-4.3-1.1-8.1-1.6-11.3-1.6c-18.7,0-33,3.8-43.2,11.4c-10.1,7.6-15.2,18.2-15.2,31.7
	c0,11.5,3.6,20.4,10.8,26.7c7.2,6.3,17.1,9.4,29.6,9.4c6.7,0,13.1-1.3,19.2-3.9C783.8,173.3,788.1,170,790.6,165.9L790.6,165.9z
	 M787.9,122.7v10.9c0,16.3-8.1,24.5-24.5,24.5c-12.1,0-18.2-5.2-18.2-15.7c0-14.1,10.7-21.1,32.2-21.1
	C779.8,121.2,783.3,121.7,787.9,122.7L787.9,122.7z M906.1,180h32.3L891,107.6l39.4-44.2h-32.8l-38.9,44.7V13.5L831.6,20V180h27.2
	v-39l13.1-13.8L906.1,180L906.1,180z"/>
</svg>
